<svg width="25" height="24" viewBox="0 0 25 24" fill="none" xmlns="http://www.w3.org/2000/svg">
<path fill-rule="evenodd" clip-rule="evenodd" d="M8.5835 3.75L19.8335 3.75C20.0324 3.75 20.2232 3.82902 20.3638 3.96967C20.5045 4.11032 20.5835 4.30109 20.5835 4.5V15.75C20.5835 16.1642 20.2477 16.5 19.8335 16.5C19.4193 16.5 19.0835 16.1642 19.0835 15.75V6.31066L5.36383 20.0303C5.07093 20.3232 4.59606 20.3232 4.30317 20.0303C4.01027 19.7374 4.01027 19.2626 4.30317 18.9697L18.0228 5.25L8.5835 5.25C8.16928 5.25 7.8335 4.91421 7.8335 4.5C7.8335 4.08579 8.16928 3.75 8.5835 3.75Z" fill="#141414"/>
</svg>
