<svg width="150" height="151" viewBox="0 0 150 151" fill="none" xmlns="http://www.w3.org/2000/svg">
<path d="M99.9985 150.5V125.5C113.832 125.5 124.998 114.333 124.998 100.5H149.998C149.998 128.167 127.582 150.5 99.9985 150.5Z" fill="#FFD11A"/>
<path d="M99.9989 150.5V125.5C86.1658 125.5 74.9992 114.333 74.9992 100.5H49.9995C49.9995 128.167 72.4159 150.5 99.9989 150.5Z" fill="#FFD11A"/>
<path d="M0 100.498H24.9997C24.9997 114.331 36.1662 125.497 49.9994 125.497V150.497C22.4164 150.497 0 128.164 0 100.498Z" fill="#FFD11A"/>
<path d="M0 100.499H24.9997C24.9997 86.6659 36.1662 75.4993 49.9994 75.4993V50.4996C22.4164 50.4996 0 72.916 0 100.499Z" fill="#FFD11A"/>
<path d="M49.9994 0.500244V25.5C36.1662 25.5 24.9997 36.6665 24.9997 50.4997H0C0 22.9167 22.4164 0.500244 49.9994 0.500244Z" fill="#FFD11A"/>
<path d="M49.9995 0.500244V25.5C63.8327 25.5 74.9992 36.6665 74.9992 50.4997H99.9989C99.9989 22.9167 77.5825 0.500244 49.9995 0.500244Z" fill="#FFD11A"/>
<path d="M149.998 50.4997H124.998C124.998 36.6665 113.832 25.5 99.9985 25.5V0.500244C127.582 0.500244 149.998 22.9167 149.998 50.4997Z" fill="#FFD11A"/>
<path d="M149.998 50.4991H124.998C124.998 64.3323 113.832 75.4989 99.9985 75.4989V100.499C127.582 100.499 149.998 78.1655 149.998 50.4991Z" fill="#FFD11A"/>
</svg>
