<svg width="20" height="20" viewBox="0 0 20 20" fill="none" xmlns="http://www.w3.org/2000/svg">
<path d="M7.94067 1.9429C8.71336 0.62493 10.6187 0.624932 11.3914 1.9429L13.1172 4.88664C13.3992 5.36761 13.8691 5.70904 14.4137 5.8286L17.7467 6.5603C19.2389 6.8879 19.8277 8.69996 18.813 9.8421L16.5466 12.3931C16.1763 12.8099 15.9968 13.3624 16.0514 13.9173L16.3855 17.3132C16.535 18.8337 14.9936 19.9536 13.5938 19.3415L10.4673 17.9744C9.95646 17.751 9.37557 17.751 8.86474 17.9744L5.73822 19.3415C4.33842 19.9536 2.79699 18.8337 2.94655 17.3132L3.28061 13.9173C3.33519 13.3624 3.15568 12.8099 2.78539 12.3931L0.519037 9.8421C-0.495649 8.69995 0.093127 6.8879 1.58536 6.5603L4.91834 5.8286C5.46291 5.70904 5.93285 5.36761 6.21483 4.88664L7.94067 1.9429Z" fill="#FFCE22"/>
</svg>
